<?xml version="1.0" encoding="us-ascii" standalone="no"?><svg xmlns="http://www.w3.org/2000/svg" xmlns:xlink="http://www.w3.org/1999/xlink" contentStyleType="text/css" height="1223px" preserveAspectRatio="none" style="width:821px;height:1223px;background:#FFFFFF;" version="1.1" viewBox="0 0 821 1223" width="821px" zoomAndPan="magnify"><defs/><g><!--cluster ProductAggregate--><g id="cluster_ProductAggregate"><rect fill="none" height="635" rx="2.5" ry="2.5" style="stroke:#181818;stroke-width:1.0;" width="295" x="169" y="582"/><text fill="#000000" font-family="sans-serif" font-size="14" font-weight="bold" lengthAdjust="spacing" textLength="128" x="252.5" y="599.1074">ProductAggregate</text></g><!--cluster ShoppingCartAggregate--><g id="cluster_ShoppingCartAggregate"><rect fill="none" height="344.5" rx="2.5" ry="2.5" style="stroke:#181818;stroke-width:1.0;" width="327" x="488" y="379"/><text fill="#000000" font-family="sans-serif" font-size="14" font-weight="bold" lengthAdjust="spacing" textLength="169" x="567" y="396.1074">ShoppingCartAggregate</text></g><!--cluster OrderAggregate--><g id="cluster_OrderAggregate"><rect fill="none" height="327.5" rx="2.5" ry="2.5" style="stroke:#181818;stroke-width:1.0;" width="138" x="7" y="582"/><text fill="#000000" font-family="sans-serif" font-size="14" font-weight="bold" lengthAdjust="spacing" textLength="114" x="19" y="599.1074">OrderAggregate</text></g><!--cluster UserAggregate--><g id="cluster_UserAggregate"><rect fill="none" height="551" rx="2.5" ry="2.5" style="stroke:#181818;stroke-width:1.0;" width="313" x="51" y="7"/><text fill="#000000" font-family="sans-serif" font-size="14" font-weight="bold" lengthAdjust="spacing" textLength="106" x="154.5" y="24.1074">UserAggregate</text></g><!--class Product--><g id="elem_Product"><rect codeLine="4" fill="#F1F1F1" height="153.6875" id="Product" rx="2.5" ry="2.5" style="stroke:#181818;stroke-width:0.5;" width="138" x="310" y="777"/><ellipse cx="350.65" cy="799.291" fill="#ADD1B2" rx="11" ry="11" style="stroke:#181818;stroke-width:1.0;"/><path d="M353.4156,795.166 Q353.5719,794.9473 353.7594,794.8379 Q353.9469,794.7285 354.1656,794.7285 Q354.5406,794.7285 354.775,794.9941 Q355.0094,795.2441 355.0094,795.8535 L355.0094,797.3066 Q355.0094,797.916 354.775,798.1816 Q354.5406,798.4473 354.1656,798.4473 Q353.8219,798.4473 353.6188,798.2441 Q353.4156,798.0566 353.3063,797.541 Q353.2594,797.1816 353.0719,796.9941 Q352.7438,796.6191 352.1344,796.4004 Q351.525,796.1816 350.9,796.1816 Q350.1344,796.1816 349.4938,796.5098 Q348.8688,796.8379 348.3688,797.5879 Q347.8844,798.3379 347.8844,799.3691 L347.8844,800.4629 Q347.8844,801.6973 348.775,802.5254 Q349.6656,803.3379 351.2594,803.3379 Q352.1969,803.3379 352.8531,803.0879 Q353.2438,802.9316 353.6656,802.4941 Q353.9313,802.2285 354.0719,802.1504 Q354.2281,802.0723 354.4313,802.0723 Q354.7594,802.0723 355.0094,802.3379 Q355.275,802.5879 355.275,802.9316 Q355.275,803.2754 354.9313,803.6816 Q354.4313,804.2598 353.6344,804.5879 Q352.5563,805.041 351.2594,805.041 Q349.7438,805.041 348.5406,804.416 Q347.5563,803.916 346.8688,802.8535 Q346.1813,801.7754 346.1813,800.4941 L346.1813,799.3379 Q346.1813,798.0098 346.7906,796.8691 Q347.4156,795.7129 348.5094,795.1035 Q349.6031,794.4785 350.8375,794.4785 Q351.5719,794.4785 352.2125,794.6504 Q352.8688,794.8066 353.4156,795.166 Z " fill="#000000"/><text fill="#000000" font-family="sans-serif" font-size="12" font-style="italic" lengthAdjust="spacing" textLength="44" x="372.85" y="794.9492">&#171;Entity&#187;</text><text fill="#000000" font-family="sans-serif" font-size="14" lengthAdjust="spacing" textLength="49" x="370.35" y="813.0684">Product</text><line style="stroke:#181818;stroke-width:0.5;" x1="311" x2="447" y1="821.582" y2="821.582"/><rect fill="none" height="6" style="stroke:#C82930;stroke-width:1.0;" width="6" x="318" y="833.3926"/><text fill="#000000" font-family="sans-serif" font-size="14" lengthAdjust="spacing" textLength="54" x="330" y="840.6895">id: string</text><rect fill="none" height="6" style="stroke:#C82930;stroke-width:1.0;" width="6" x="318" y="852.0137"/><text fill="#000000" font-family="sans-serif" font-size="14" lengthAdjust="spacing" textLength="78" x="330" y="859.3105">name: string</text><rect fill="none" height="6" style="stroke:#C82930;stroke-width:1.0;" width="6" x="318" y="870.6348"/><text fill="#000000" font-family="sans-serif" font-size="14" lengthAdjust="spacing" textLength="112" x="330" y="877.9316">description: string</text><rect fill="none" height="6" style="stroke:#C82930;stroke-width:1.0;" width="6" x="318" y="889.2559"/><text fill="#000000" font-family="sans-serif" font-size="14" lengthAdjust="spacing" textLength="81" x="330" y="896.5527">price: Money</text><rect fill="none" height="6" style="stroke:#C82930;stroke-width:1.0;" width="6" x="318" y="907.877"/><text fill="#000000" font-family="sans-serif" font-size="14" lengthAdjust="spacing" textLength="73" x="330" y="915.1738">quantity: int</text><line style="stroke:#181818;stroke-width:0.5;" x1="311" x2="447" y1="922.6875" y2="922.6875"/></g><!--class ProductVariant--><g id="elem_ProductVariant"><rect codeLine="12" fill="#F1F1F1" height="209.5508" id="ProductVariant" rx="2.5" ry="2.5" style="stroke:#181818;stroke-width:0.5;" width="144" x="185" y="991"/><ellipse cx="208.1" cy="1013.291" fill="#ADD1B2" rx="11" ry="11" style="stroke:#181818;stroke-width:1.0;"/><path d="M210.8656,1009.166 Q211.0219,1008.9473 211.2094,1008.8379 Q211.3969,1008.7285 211.6156,1008.7285 Q211.9906,1008.7285 212.225,1008.9941 Q212.4594,1009.2441 212.4594,1009.8535 L212.4594,1011.3066 Q212.4594,1011.916 212.225,1012.1816 Q211.9906,1012.4473 211.6156,1012.4473 Q211.2719,1012.4473 211.0688,1012.2441 Q210.8656,1012.0566 210.7563,1011.541 Q210.7094,1011.1816 210.5219,1010.9941 Q210.1938,1010.6191 209.5844,1010.4004 Q208.975,1010.1816 208.35,1010.1816 Q207.5844,1010.1816 206.9438,1010.5098 Q206.3188,1010.8379 205.8188,1011.5879 Q205.3344,1012.3379 205.3344,1013.3691 L205.3344,1014.4629 Q205.3344,1015.6973 206.225,1016.5254 Q207.1156,1017.3379 208.7094,1017.3379 Q209.6469,1017.3379 210.3031,1017.0879 Q210.6938,1016.9316 211.1156,1016.4941 Q211.3813,1016.2285 211.5219,1016.1504 Q211.6781,1016.0723 211.8813,1016.0723 Q212.2094,1016.0723 212.4594,1016.3379 Q212.725,1016.5879 212.725,1016.9316 Q212.725,1017.2754 212.3813,1017.6816 Q211.8813,1018.2598 211.0844,1018.5879 Q210.0063,1019.041 208.7094,1019.041 Q207.1938,1019.041 205.9906,1018.416 Q205.0063,1017.916 204.3188,1016.8535 Q203.6313,1015.7754 203.6313,1014.4941 L203.6313,1013.3379 Q203.6313,1012.0098 204.2406,1010.8691 Q204.8656,1009.7129 205.9594,1009.1035 Q207.0531,1008.4785 208.2875,1008.4785 Q209.0219,1008.4785 209.6625,1008.6504 Q210.3188,1008.8066 210.8656,1009.166 Z " fill="#000000"/><text fill="#000000" font-family="sans-serif" font-size="12" font-style="italic" lengthAdjust="spacing" textLength="44" x="248.9" y="1008.9492">&#171;Entity&#187;</text><text fill="#000000" font-family="sans-serif" font-size="14" lengthAdjust="spacing" textLength="94" x="223.9" y="1027.0684">ProductVariant</text><line style="stroke:#181818;stroke-width:0.5;" x1="186" x2="328" y1="1035.582" y2="1035.582"/><rect fill="none" height="6" style="stroke:#C82930;stroke-width:1.0;" width="6" x="193" y="1047.3926"/><text fill="#000000" font-family="sans-serif" font-size="14" lengthAdjust="spacing" textLength="75" x="205" y="1054.6895">width: string</text><rect fill="none" height="6" style="stroke:#C82930;stroke-width:1.0;" width="6" x="193" y="1066.0137"/><text fill="#000000" font-family="sans-serif" font-size="14" lengthAdjust="spacing" textLength="82" x="205" y="1073.3105">height: string</text><rect fill="none" height="6" style="stroke:#C82930;stroke-width:1.0;" width="6" x="193" y="1084.6348"/><text fill="#000000" font-family="sans-serif" font-size="14" lengthAdjust="spacing" textLength="118" x="205" y="1091.9316">composition: string</text><rect fill="none" height="6" style="stroke:#C82930;stroke-width:1.0;" width="6" x="193" y="1103.2559"/><text fill="#000000" font-family="sans-serif" font-size="14" lengthAdjust="spacing" textLength="66" x="205" y="1110.5527">price: float</text><rect fill="none" height="6" style="stroke:#C82930;stroke-width:1.0;" width="6" x="193" y="1121.877"/><text fill="#000000" font-family="sans-serif" font-size="14" lengthAdjust="spacing" textLength="103" x="205" y="1129.1738">cargoPrice: float</text><rect fill="none" height="6" style="stroke:#C82930;stroke-width:1.0;" width="6" x="193" y="1140.498"/><text fill="#000000" font-family="sans-serif" font-size="14" lengthAdjust="spacing" textLength="102" x="205" y="1147.7949">taxPercent: float</text><rect fill="none" height="6" style="stroke:#C82930;stroke-width:1.0;" width="6" x="193" y="1159.1191"/><text fill="#000000" font-family="sans-serif" font-size="14" lengthAdjust="spacing" textLength="81" x="205" y="1166.416">image: string</text><rect fill="none" height="6" style="stroke:#C82930;stroke-width:1.0;" width="6" x="193" y="1177.7402"/><text fill="#000000" font-family="sans-serif" font-size="14" lengthAdjust="spacing" textLength="85" x="205" y="1185.0371">stock: integer</text><line style="stroke:#181818;stroke-width:0.5;" x1="186" x2="328" y1="1192.5508" y2="1192.5508"/></g><!--class ProductCategory--><g id="elem_ProductCategory"><rect codeLine="23" fill="#F1F1F1" height="97.8242" id="ProductCategory" rx="2.5" ry="2.5" style="stroke:#181818;stroke-width:0.5;" width="139" x="308.5" y="619"/><ellipse cx="323.5" cy="641.291" fill="#ADD1B2" rx="11" ry="11" style="stroke:#181818;stroke-width:1.0;"/><path d="M326.2656,637.166 Q326.4219,636.9473 326.6094,636.8379 Q326.7969,636.7285 327.0156,636.7285 Q327.3906,636.7285 327.625,636.9941 Q327.8594,637.2441 327.8594,637.8535 L327.8594,639.3066 Q327.8594,639.916 327.625,640.1816 Q327.3906,640.4473 327.0156,640.4473 Q326.6719,640.4473 326.4688,640.2441 Q326.2656,640.0566 326.1563,639.541 Q326.1094,639.1816 325.9219,638.9941 Q325.5938,638.6191 324.9844,638.4004 Q324.375,638.1816 323.75,638.1816 Q322.9844,638.1816 322.3438,638.5098 Q321.7188,638.8379 321.2188,639.5879 Q320.7344,640.3379 320.7344,641.3691 L320.7344,642.4629 Q320.7344,643.6973 321.625,644.5254 Q322.5156,645.3379 324.1094,645.3379 Q325.0469,645.3379 325.7031,645.0879 Q326.0938,644.9316 326.5156,644.4941 Q326.7813,644.2285 326.9219,644.1504 Q327.0781,644.0723 327.2813,644.0723 Q327.6094,644.0723 327.8594,644.3379 Q328.125,644.5879 328.125,644.9316 Q328.125,645.2754 327.7813,645.6816 Q327.2813,646.2598 326.4844,646.5879 Q325.4063,647.041 324.1094,647.041 Q322.5938,647.041 321.3906,646.416 Q320.4063,645.916 319.7188,644.8535 Q319.0313,643.7754 319.0313,642.4941 L319.0313,641.3379 Q319.0313,640.0098 319.6406,638.8691 Q320.2656,637.7129 321.3594,637.1035 Q322.4531,636.4785 323.6875,636.4785 Q324.4219,636.4785 325.0625,636.6504 Q325.7188,636.8066 326.2656,637.166 Z " fill="#000000"/><text fill="#000000" font-family="sans-serif" font-size="12" font-style="italic" lengthAdjust="spacing" textLength="44" x="369" y="636.9492">&#171;Entity&#187;</text><text fill="#000000" font-family="sans-serif" font-size="14" lengthAdjust="spacing" textLength="107" x="337.5" y="655.0684">ProductCategory</text><line style="stroke:#181818;stroke-width:0.5;" x1="309.5" x2="446.5" y1="663.582" y2="663.582"/><rect fill="none" height="6" style="stroke:#C82930;stroke-width:1.0;" width="6" x="316.5" y="675.3926"/><text fill="#000000" font-family="sans-serif" font-size="14" lengthAdjust="spacing" textLength="54" x="328.5" y="682.6895">id: string</text><rect fill="none" height="6" style="stroke:#C82930;stroke-width:1.0;" width="6" x="316.5" y="694.0137"/><text fill="#000000" font-family="sans-serif" font-size="14" lengthAdjust="spacing" textLength="78" x="328.5" y="701.3105">name: string</text><line style="stroke:#181818;stroke-width:0.5;" x1="309.5" x2="446.5" y1="708.8242" y2="708.8242"/></g><!--class Color--><g id="elem_Color"><rect codeLine="28" fill="#F1F1F1" height="116.4453" id="Color" rx="2.5" ry="2.5" style="stroke:#181818;stroke-width:0.5;" width="90" x="185" y="796"/><ellipse cx="208.1" cy="818.291" fill="#ADD1B2" rx="11" ry="11" style="stroke:#181818;stroke-width:1.0;"/><path d="M210.8656,814.166 Q211.0219,813.9473 211.2094,813.8379 Q211.3969,813.7285 211.6156,813.7285 Q211.9906,813.7285 212.225,813.9941 Q212.4594,814.2441 212.4594,814.8535 L212.4594,816.3066 Q212.4594,816.916 212.225,817.1816 Q211.9906,817.4473 211.6156,817.4473 Q211.2719,817.4473 211.0688,817.2441 Q210.8656,817.0566 210.7563,816.541 Q210.7094,816.1816 210.5219,815.9941 Q210.1938,815.6191 209.5844,815.4004 Q208.975,815.1816 208.35,815.1816 Q207.5844,815.1816 206.9438,815.5098 Q206.3188,815.8379 205.8188,816.5879 Q205.3344,817.3379 205.3344,818.3691 L205.3344,819.4629 Q205.3344,820.6973 206.225,821.5254 Q207.1156,822.3379 208.7094,822.3379 Q209.6469,822.3379 210.3031,822.0879 Q210.6938,821.9316 211.1156,821.4941 Q211.3813,821.2285 211.5219,821.1504 Q211.6781,821.0723 211.8813,821.0723 Q212.2094,821.0723 212.4594,821.3379 Q212.725,821.5879 212.725,821.9316 Q212.725,822.2754 212.3813,822.6816 Q211.8813,823.2598 211.0844,823.5879 Q210.0063,824.041 208.7094,824.041 Q207.1938,824.041 205.9906,823.416 Q205.0063,822.916 204.3188,821.8535 Q203.6313,820.7754 203.6313,819.4941 L203.6313,818.3379 Q203.6313,817.0098 204.2406,815.8691 Q204.8656,814.7129 205.9594,814.1035 Q207.0531,813.4785 208.2875,813.4785 Q209.0219,813.4785 209.6625,813.6504 Q210.3188,813.8066 210.8656,814.166 Z " fill="#000000"/><text fill="#000000" font-family="sans-serif" font-size="12" font-style="italic" lengthAdjust="spacing" textLength="44" x="221.9" y="813.9492">&#171;Entity&#187;</text><text fill="#000000" font-family="sans-serif" font-size="14" lengthAdjust="spacing" textLength="34" x="226.9" y="832.0684">Color</text><line style="stroke:#181818;stroke-width:0.5;" x1="186" x2="274" y1="840.582" y2="840.582"/><text fill="#000000" font-family="sans-serif" font-size="14" lengthAdjust="spacing" textLength="46" x="191" y="859.6895">id: long</text><text fill="#000000" font-family="sans-serif" font-size="14" lengthAdjust="spacing" textLength="78" x="191" y="878.3105">name: string</text><text fill="#000000" font-family="sans-serif" font-size="14" lengthAdjust="spacing" textLength="65" x="191" y="896.9316">hex: string</text><line style="stroke:#181818;stroke-width:0.5;" x1="186" x2="274" y1="904.4453" y2="904.4453"/></g><!--class Cart--><g id="elem_Cart"><rect codeLine="37" fill="#F1F1F1" height="60.582" id="Cart" rx="2.5" ry="2.5" style="stroke:#181818;stroke-width:0.5;" width="72" x="727" y="434.5"/><ellipse cx="742" cy="456.791" fill="#ADD1B2" rx="11" ry="11" style="stroke:#181818;stroke-width:1.0;"/><path d="M744.7656,452.666 Q744.9219,452.4473 745.1094,452.3379 Q745.2969,452.2285 745.5156,452.2285 Q745.8906,452.2285 746.125,452.4941 Q746.3594,452.7441 746.3594,453.3535 L746.3594,454.8066 Q746.3594,455.416 746.125,455.6816 Q745.8906,455.9473 745.5156,455.9473 Q745.1719,455.9473 744.9688,455.7441 Q744.7656,455.5566 744.6563,455.041 Q744.6094,454.6816 744.4219,454.4941 Q744.0938,454.1191 743.4844,453.9004 Q742.875,453.6816 742.25,453.6816 Q741.4844,453.6816 740.8438,454.0098 Q740.2188,454.3379 739.7188,455.0879 Q739.2344,455.8379 739.2344,456.8691 L739.2344,457.9629 Q739.2344,459.1973 740.125,460.0254 Q741.0156,460.8379 742.6094,460.8379 Q743.5469,460.8379 744.2031,460.5879 Q744.5938,460.4316 745.0156,459.9941 Q745.2813,459.7285 745.4219,459.6504 Q745.5781,459.5723 745.7813,459.5723 Q746.1094,459.5723 746.3594,459.8379 Q746.625,460.0879 746.625,460.4316 Q746.625,460.7754 746.2813,461.1816 Q745.7813,461.7598 744.9844,462.0879 Q743.9063,462.541 742.6094,462.541 Q741.0938,462.541 739.8906,461.916 Q738.9063,461.416 738.2188,460.3535 Q737.5313,459.2754 737.5313,457.9941 L737.5313,456.8379 Q737.5313,455.5098 738.1406,454.3691 Q738.7656,453.2129 739.8594,452.6035 Q740.9531,451.9785 742.1875,451.9785 Q742.9219,451.9785 743.5625,452.1504 Q744.2188,452.3066 744.7656,452.666 Z " fill="#000000"/><text fill="#000000" font-family="sans-serif" font-size="12" font-style="italic" lengthAdjust="spacing" textLength="44" x="754" y="452.4492">&#171;Entity&#187;</text><text fill="#000000" font-family="sans-serif" font-size="14" lengthAdjust="spacing" textLength="27" x="762.5" y="470.5684">Cart</text><line style="stroke:#181818;stroke-width:0.5;" x1="728" x2="798" y1="479.082" y2="479.082"/><line style="stroke:#181818;stroke-width:0.5;" x1="728" x2="798" y1="487.082" y2="487.082"/></g><!--class CartItem--><g id="elem_CartItem"><rect codeLine="40" fill="#F1F1F1" height="79.2031" id="CartItem" rx="2.5" ry="2.5" style="stroke:#181818;stroke-width:0.5;" width="85" x="608.5" y="628.5"/><ellipse cx="623.5" cy="650.791" fill="#ADD1B2" rx="11" ry="11" style="stroke:#181818;stroke-width:1.0;"/><path d="M626.2656,646.666 Q626.4219,646.4473 626.6094,646.3379 Q626.7969,646.2285 627.0156,646.2285 Q627.3906,646.2285 627.625,646.4941 Q627.8594,646.7441 627.8594,647.3535 L627.8594,648.8066 Q627.8594,649.416 627.625,649.6816 Q627.3906,649.9473 627.0156,649.9473 Q626.6719,649.9473 626.4688,649.7441 Q626.2656,649.5566 626.1563,649.041 Q626.1094,648.6816 625.9219,648.4941 Q625.5938,648.1191 624.9844,647.9004 Q624.375,647.6816 623.75,647.6816 Q622.9844,647.6816 622.3438,648.0098 Q621.7188,648.3379 621.2188,649.0879 Q620.7344,649.8379 620.7344,650.8691 L620.7344,651.9629 Q620.7344,653.1973 621.625,654.0254 Q622.5156,654.8379 624.1094,654.8379 Q625.0469,654.8379 625.7031,654.5879 Q626.0938,654.4316 626.5156,653.9941 Q626.7813,653.7285 626.9219,653.6504 Q627.0781,653.5723 627.2813,653.5723 Q627.6094,653.5723 627.8594,653.8379 Q628.125,654.0879 628.125,654.4316 Q628.125,654.7754 627.7813,655.1816 Q627.2813,655.7598 626.4844,656.0879 Q625.4063,656.541 624.1094,656.541 Q622.5938,656.541 621.3906,655.916 Q620.4063,655.416 619.7188,654.3535 Q619.0313,653.2754 619.0313,651.9941 L619.0313,650.8379 Q619.0313,649.5098 619.6406,648.3691 Q620.2656,647.2129 621.3594,646.6035 Q622.4531,645.9785 623.6875,645.9785 Q624.4219,645.9785 625.0625,646.1504 Q625.7188,646.3066 626.2656,646.666 Z " fill="#000000"/><text fill="#000000" font-family="sans-serif" font-size="12" font-style="italic" lengthAdjust="spacing" textLength="44" x="642" y="646.4492">&#171;Entity&#187;</text><text fill="#000000" font-family="sans-serif" font-size="14" lengthAdjust="spacing" textLength="53" x="637.5" y="664.5684">CartItem</text><line style="stroke:#181818;stroke-width:0.5;" x1="609.5" x2="692.5" y1="673.082" y2="673.082"/><rect fill="none" height="6" style="stroke:#C82930;stroke-width:1.0;" width="6" x="616.5" y="684.8926"/><text fill="#000000" font-family="sans-serif" font-size="14" lengthAdjust="spacing" textLength="47" x="628.5" y="692.1895">amount</text><line style="stroke:#181818;stroke-width:0.5;" x1="609.5" x2="692.5" y1="699.7031" y2="699.7031"/></g><!--class Discount--><g id="elem_Discount"><rect codeLine="44" fill="#F1F1F1" height="97.8242" id="Discount" rx="2.5" ry="2.5" style="stroke:#181818;stroke-width:0.5;" width="187" x="504.5" y="416"/><ellipse cx="566.25" cy="438.291" fill="#ADD1B2" rx="11" ry="11" style="stroke:#181818;stroke-width:1.0;"/><path d="M569.0156,434.166 Q569.1719,433.9473 569.3594,433.8379 Q569.5469,433.7285 569.7656,433.7285 Q570.1406,433.7285 570.375,433.9941 Q570.6094,434.2441 570.6094,434.8535 L570.6094,436.3066 Q570.6094,436.916 570.375,437.1816 Q570.1406,437.4473 569.7656,437.4473 Q569.4219,437.4473 569.2188,437.2441 Q569.0156,437.0566 568.9063,436.541 Q568.8594,436.1816 568.6719,435.9941 Q568.3438,435.6191 567.7344,435.4004 Q567.125,435.1816 566.5,435.1816 Q565.7344,435.1816 565.0938,435.5098 Q564.4688,435.8379 563.9688,436.5879 Q563.4844,437.3379 563.4844,438.3691 L563.4844,439.4629 Q563.4844,440.6973 564.375,441.5254 Q565.2656,442.3379 566.8594,442.3379 Q567.7969,442.3379 568.4531,442.0879 Q568.8438,441.9316 569.2656,441.4941 Q569.5313,441.2285 569.6719,441.1504 Q569.8281,441.0723 570.0313,441.0723 Q570.3594,441.0723 570.6094,441.3379 Q570.875,441.5879 570.875,441.9316 Q570.875,442.2754 570.5313,442.6816 Q570.0313,443.2598 569.2344,443.5879 Q568.1563,444.041 566.8594,444.041 Q565.3438,444.041 564.1406,443.416 Q563.1563,442.916 562.4688,441.8535 Q561.7813,440.7754 561.7813,439.4941 L561.7813,438.3379 Q561.7813,437.0098 562.3906,435.8691 Q563.0156,434.7129 564.1094,434.1035 Q565.2031,433.4785 566.4375,433.4785 Q567.1719,433.4785 567.8125,433.6504 Q568.4688,433.8066 569.0156,434.166 Z " fill="#000000"/><text fill="#000000" font-family="sans-serif" font-size="12" font-style="italic" lengthAdjust="spacing" textLength="44" x="592.25" y="433.9492">&#171;Entity&#187;</text><text fill="#000000" font-family="sans-serif" font-size="14" lengthAdjust="spacing" textLength="55" x="586.75" y="452.0684">Discount</text><line style="stroke:#181818;stroke-width:0.5;" x1="505.5" x2="690.5" y1="460.582" y2="460.582"/><rect fill="none" height="6" style="stroke:#C82930;stroke-width:1.0;" width="6" x="512.5" y="472.3926"/><text fill="#000000" font-family="sans-serif" font-size="14" lengthAdjust="spacing" textLength="74" x="524.5" y="479.6895">code: string</text><rect fill="none" height="6" style="stroke:#C82930;stroke-width:1.0;" width="6" x="512.5" y="491.0137"/><text fill="#000000" font-family="sans-serif" font-size="14" lengthAdjust="spacing" textLength="161" x="524.5" y="498.3105">discount_percent: integer</text><line style="stroke:#181818;stroke-width:0.5;" x1="505.5" x2="690.5" y1="505.8242" y2="505.8242"/></g><!--class Order--><g id="elem_Order"><rect codeLine="52" fill="#F1F1F1" height="97.8242" id="Order" rx="2.5" ry="2.5" style="stroke:#181818;stroke-width:0.5;" width="91" x="37.5" y="619"/><ellipse cx="61.05" cy="641.291" fill="#ADD1B2" rx="11" ry="11" style="stroke:#181818;stroke-width:1.0;"/><path d="M63.8156,637.166 Q63.9719,636.9473 64.1594,636.8379 Q64.3469,636.7285 64.5656,636.7285 Q64.9406,636.7285 65.175,636.9941 Q65.4094,637.2441 65.4094,637.8535 L65.4094,639.3066 Q65.4094,639.916 65.175,640.1816 Q64.9406,640.4473 64.5656,640.4473 Q64.2219,640.4473 64.0188,640.2441 Q63.8156,640.0566 63.7063,639.541 Q63.6594,639.1816 63.4719,638.9941 Q63.1438,638.6191 62.5344,638.4004 Q61.925,638.1816 61.3,638.1816 Q60.5344,638.1816 59.8938,638.5098 Q59.2688,638.8379 58.7688,639.5879 Q58.2844,640.3379 58.2844,641.3691 L58.2844,642.4629 Q58.2844,643.6973 59.175,644.5254 Q60.0656,645.3379 61.6594,645.3379 Q62.5969,645.3379 63.2531,645.0879 Q63.6438,644.9316 64.0656,644.4941 Q64.3313,644.2285 64.4719,644.1504 Q64.6281,644.0723 64.8313,644.0723 Q65.1594,644.0723 65.4094,644.3379 Q65.675,644.5879 65.675,644.9316 Q65.675,645.2754 65.3313,645.6816 Q64.8313,646.2598 64.0344,646.5879 Q62.9563,647.041 61.6594,647.041 Q60.1438,647.041 58.9406,646.416 Q57.9563,645.916 57.2688,644.8535 Q56.5813,643.7754 56.5813,642.4941 L56.5813,641.3379 Q56.5813,640.0098 57.1906,638.8691 Q57.8156,637.7129 58.9094,637.1035 Q60.0031,636.4785 61.2375,636.4785 Q61.9719,636.4785 62.6125,636.6504 Q63.2688,636.8066 63.8156,637.166 Z " fill="#000000"/><text fill="#000000" font-family="sans-serif" font-size="12" font-style="italic" lengthAdjust="spacing" textLength="44" x="74.95" y="636.9492">&#171;Entity&#187;</text><text fill="#000000" font-family="sans-serif" font-size="14" lengthAdjust="spacing" textLength="37" x="78.45" y="655.0684">Order</text><line style="stroke:#181818;stroke-width:0.5;" x1="38.5" x2="127.5" y1="663.582" y2="663.582"/><rect fill="none" height="6" style="stroke:#C82930;stroke-width:1.0;" width="6" x="45.5" y="675.3926"/><text fill="#000000" font-family="sans-serif" font-size="14" lengthAdjust="spacing" textLength="56" x="57.5" y="682.6895">id: String</text><rect fill="none" height="6" style="stroke:#C82930;stroke-width:1.0;" width="6" x="45.5" y="694.0137"/><text fill="#000000" font-family="sans-serif" font-size="14" lengthAdjust="spacing" textLength="65" x="57.5" y="701.3105">user: User</text><line style="stroke:#181818;stroke-width:0.5;" x1="38.5" x2="127.5" y1="708.8242" y2="708.8242"/></g><!--class OrderDetail--><g id="elem_OrderDetail"><rect codeLine="57" fill="#F1F1F1" height="79.2031" id="OrderDetail" rx="2.5" ry="2.5" style="stroke:#181818;stroke-width:0.5;" width="105" x="23.5" y="814.5"/><ellipse cx="38.5" cy="836.791" fill="#ADD1B2" rx="11" ry="11" style="stroke:#181818;stroke-width:1.0;"/><path d="M41.2656,832.666 Q41.4219,832.4473 41.6094,832.3379 Q41.7969,832.2285 42.0156,832.2285 Q42.3906,832.2285 42.625,832.4941 Q42.8594,832.7441 42.8594,833.3535 L42.8594,834.8066 Q42.8594,835.416 42.625,835.6816 Q42.3906,835.9473 42.0156,835.9473 Q41.6719,835.9473 41.4688,835.7441 Q41.2656,835.5566 41.1563,835.041 Q41.1094,834.6816 40.9219,834.4941 Q40.5938,834.1191 39.9844,833.9004 Q39.375,833.6816 38.75,833.6816 Q37.9844,833.6816 37.3438,834.0098 Q36.7188,834.3379 36.2188,835.0879 Q35.7344,835.8379 35.7344,836.8691 L35.7344,837.9629 Q35.7344,839.1973 36.625,840.0254 Q37.5156,840.8379 39.1094,840.8379 Q40.0469,840.8379 40.7031,840.5879 Q41.0938,840.4316 41.5156,839.9941 Q41.7813,839.7285 41.9219,839.6504 Q42.0781,839.5723 42.2813,839.5723 Q42.6094,839.5723 42.8594,839.8379 Q43.125,840.0879 43.125,840.4316 Q43.125,840.7754 42.7813,841.1816 Q42.2813,841.7598 41.4844,842.0879 Q40.4063,842.541 39.1094,842.541 Q37.5938,842.541 36.3906,841.916 Q35.4063,841.416 34.7188,840.3535 Q34.0313,839.2754 34.0313,837.9941 L34.0313,836.8379 Q34.0313,835.5098 34.6406,834.3691 Q35.2656,833.2129 36.3594,832.6035 Q37.4531,831.9785 38.6875,831.9785 Q39.4219,831.9785 40.0625,832.1504 Q40.7188,832.3066 41.2656,832.666 Z " fill="#000000"/><text fill="#000000" font-family="sans-serif" font-size="12" font-style="italic" lengthAdjust="spacing" textLength="44" x="67" y="832.4492">&#171;Entity&#187;</text><text fill="#000000" font-family="sans-serif" font-size="14" lengthAdjust="spacing" textLength="73" x="52.5" y="850.5684">OrderDetail</text><line style="stroke:#181818;stroke-width:0.5;" x1="24.5" x2="127.5" y1="859.082" y2="859.082"/><rect fill="none" height="6" style="stroke:#C82930;stroke-width:1.0;" width="6" x="31.5" y="870.8926"/><text fill="#000000" font-family="sans-serif" font-size="14" lengthAdjust="spacing" textLength="47" x="43.5" y="878.1895">amount</text><line style="stroke:#181818;stroke-width:0.5;" x1="24.5" x2="127.5" y1="885.7031" y2="885.7031"/></g><!--class User--><g id="elem_User"><rect codeLine="64" fill="#F1F1F1" height="284.0352" id="User" rx="2.5" ry="2.5" style="stroke:#181818;stroke-width:0.5;" width="165" x="67.5" y="44"/><ellipse cx="125.75" cy="66.291" fill="#ADD1B2" rx="11" ry="11" style="stroke:#181818;stroke-width:1.0;"/><path d="M128.5156,62.166 Q128.6719,61.9473 128.8594,61.8379 Q129.0469,61.7285 129.2656,61.7285 Q129.6406,61.7285 129.875,61.9941 Q130.1094,62.2441 130.1094,62.8535 L130.1094,64.3066 Q130.1094,64.916 129.875,65.1816 Q129.6406,65.4473 129.2656,65.4473 Q128.9219,65.4473 128.7188,65.2441 Q128.5156,65.0566 128.4063,64.541 Q128.3594,64.1816 128.1719,63.9941 Q127.8438,63.6191 127.2344,63.4004 Q126.625,63.1816 126,63.1816 Q125.2344,63.1816 124.5938,63.5098 Q123.9688,63.8379 123.4688,64.5879 Q122.9844,65.3379 122.9844,66.3691 L122.9844,67.4629 Q122.9844,68.6973 123.875,69.5254 Q124.7656,70.3379 126.3594,70.3379 Q127.2969,70.3379 127.9531,70.0879 Q128.3438,69.9316 128.7656,69.4941 Q129.0313,69.2285 129.1719,69.1504 Q129.3281,69.0723 129.5313,69.0723 Q129.8594,69.0723 130.1094,69.3379 Q130.375,69.5879 130.375,69.9316 Q130.375,70.2754 130.0313,70.6816 Q129.5313,71.2598 128.7344,71.5879 Q127.6563,72.041 126.3594,72.041 Q124.8438,72.041 123.6406,71.416 Q122.6563,70.916 121.9688,69.8535 Q121.2813,68.7754 121.2813,67.4941 L121.2813,66.3379 Q121.2813,65.0098 121.8906,63.8691 Q122.5156,62.7129 123.6094,62.1035 Q124.7031,61.4785 125.9375,61.4785 Q126.6719,61.4785 127.3125,61.6504 Q127.9688,61.8066 128.5156,62.166 Z " fill="#000000"/><text fill="#000000" font-family="sans-serif" font-size="12" font-style="italic" lengthAdjust="spacing" textLength="44" x="144.25" y="61.9492">&#171;Entity&#187;</text><text fill="#000000" font-family="sans-serif" font-size="14" lengthAdjust="spacing" textLength="29" x="151.75" y="80.0684">User</text><line style="stroke:#181818;stroke-width:0.5;" x1="68.5" x2="231.5" y1="88.582" y2="88.582"/><rect fill="none" height="6" style="stroke:#C82930;stroke-width:1.0;" width="6" x="75.5" y="100.3926"/><text fill="#000000" font-family="sans-serif" font-size="14" lengthAdjust="spacing" textLength="54" x="87.5" y="107.6895">id: string</text><rect fill="none" height="6" style="stroke:#C82930;stroke-width:1.0;" width="6" x="75.5" y="119.0137"/><text fill="#000000" font-family="sans-serif" font-size="14" lengthAdjust="spacing" textLength="101" x="87.5" y="126.3105">firstname: string</text><rect fill="none" height="6" style="stroke:#C82930;stroke-width:1.0;" width="6" x="75.5" y="137.6348"/><text fill="#000000" font-family="sans-serif" font-size="14" lengthAdjust="spacing" textLength="100" x="87.5" y="144.9316">lastname: string</text><rect fill="none" height="6" style="stroke:#C82930;stroke-width:1.0;" width="6" x="75.5" y="156.2559"/><text fill="#000000" font-family="sans-serif" font-size="14" lengthAdjust="spacing" textLength="76" x="87.5" y="163.5527">email: string</text><rect fill="none" height="6" style="stroke:#C82930;stroke-width:1.0;" width="6" x="75.5" y="174.877"/><text fill="#000000" font-family="sans-serif" font-size="14" lengthAdjust="spacing" textLength="103" x="87.5" y="182.1738">password: string</text><rect fill="none" height="6" style="stroke:#C82930;stroke-width:1.0;" width="6" x="75.5" y="193.498"/><text fill="#000000" font-family="sans-serif" font-size="14" lengthAdjust="spacing" textLength="83" x="87.5" y="200.7949">phone: string</text><rect fill="none" height="6" style="stroke:#C82930;stroke-width:1.0;" width="6" x="75.5" y="212.1191"/><text fill="#000000" font-family="sans-serif" font-size="14" lengthAdjust="spacing" textLength="90" x="87.5" y="219.416">country: string</text><rect fill="none" height="6" style="stroke:#C82930;stroke-width:1.0;" width="6" x="75.5" y="230.7402"/><text fill="#000000" font-family="sans-serif" font-size="14" lengthAdjust="spacing" textLength="74" x="87.5" y="238.0371">state: string</text><rect fill="none" height="6" style="stroke:#C82930;stroke-width:1.0;" width="6" x="75.5" y="249.3613"/><text fill="#000000" font-family="sans-serif" font-size="14" lengthAdjust="spacing" textLength="64" x="87.5" y="256.6582">city: string</text><rect fill="none" height="6" style="stroke:#C82930;stroke-width:1.0;" width="6" x="75.5" y="267.9824"/><text fill="#000000" font-family="sans-serif" font-size="14" lengthAdjust="spacing" textLength="60" x="87.5" y="275.2793">zip: string</text><rect fill="none" height="6" style="stroke:#C82930;stroke-width:1.0;" width="6" x="75.5" y="286.6035"/><text fill="#000000" font-family="sans-serif" font-size="14" lengthAdjust="spacing" textLength="94" x="87.5" y="293.9004">address: string</text><rect fill="none" height="6" style="stroke:#C82930;stroke-width:1.0;" width="6" x="75.5" y="305.2246"/><text fill="#000000" font-family="sans-serif" font-size="14" lengthAdjust="spacing" textLength="139" x="87.5" y="312.5215">registrationDate: Date</text><line style="stroke:#181818;stroke-width:0.5;" x1="68.5" x2="231.5" y1="320.0352" y2="320.0352"/></g><!--class Address--><g id="elem_Address"><rect codeLine="79" fill="#F1F1F1" height="153.6875" id="Address" rx="2.5" ry="2.5" style="stroke:#181818;stroke-width:0.5;" width="120" x="67" y="388"/><ellipse cx="86.5" cy="410.291" fill="#ADD1B2" rx="11" ry="11" style="stroke:#181818;stroke-width:1.0;"/><path d="M89.2656,406.166 Q89.4219,405.9473 89.6094,405.8379 Q89.7969,405.7285 90.0156,405.7285 Q90.3906,405.7285 90.625,405.9941 Q90.8594,406.2441 90.8594,406.8535 L90.8594,408.3066 Q90.8594,408.916 90.625,409.1816 Q90.3906,409.4473 90.0156,409.4473 Q89.6719,409.4473 89.4688,409.2441 Q89.2656,409.0566 89.1563,408.541 Q89.1094,408.1816 88.9219,407.9941 Q88.5938,407.6191 87.9844,407.4004 Q87.375,407.1816 86.75,407.1816 Q85.9844,407.1816 85.3438,407.5098 Q84.7188,407.8379 84.2188,408.5879 Q83.7344,409.3379 83.7344,410.3691 L83.7344,411.4629 Q83.7344,412.6973 84.625,413.5254 Q85.5156,414.3379 87.1094,414.3379 Q88.0469,414.3379 88.7031,414.0879 Q89.0938,413.9316 89.5156,413.4941 Q89.7813,413.2285 89.9219,413.1504 Q90.0781,413.0723 90.2813,413.0723 Q90.6094,413.0723 90.8594,413.3379 Q91.125,413.5879 91.125,413.9316 Q91.125,414.2754 90.7813,414.6816 Q90.2813,415.2598 89.4844,415.5879 Q88.4063,416.041 87.1094,416.041 Q85.5938,416.041 84.3906,415.416 Q83.4063,414.916 82.7188,413.8535 Q82.0313,412.7754 82.0313,411.4941 L82.0313,410.3379 Q82.0313,409.0098 82.6406,407.8691 Q83.2656,406.7129 84.3594,406.1035 Q85.4531,405.4785 86.6875,405.4785 Q87.4219,405.4785 88.0625,405.6504 Q88.7188,405.8066 89.2656,406.166 Z " fill="#000000"/><text fill="#000000" font-family="sans-serif" font-size="12" font-style="italic" lengthAdjust="spacing" textLength="82" x="99.5" y="405.9492">&#171;ValueObject&#187;</text><text fill="#000000" font-family="sans-serif" font-size="14" lengthAdjust="spacing" textLength="52" x="114.5" y="424.0684">Address</text><line style="stroke:#181818;stroke-width:0.5;" x1="68" x2="186" y1="432.582" y2="432.582"/><rect fill="none" height="6" style="stroke:#C82930;stroke-width:1.0;" width="6" x="75" y="444.3926"/><text fill="#000000" font-family="sans-serif" font-size="14" lengthAdjust="spacing" textLength="79" x="87" y="451.6895">street: string</text><rect fill="none" height="6" style="stroke:#C82930;stroke-width:1.0;" width="6" x="75" y="463.0137"/><text fill="#000000" font-family="sans-serif" font-size="14" lengthAdjust="spacing" textLength="64" x="87" y="470.3105">city: string</text><rect fill="none" height="6" style="stroke:#C82930;stroke-width:1.0;" width="6" x="75" y="481.6348"/><text fill="#000000" font-family="sans-serif" font-size="14" lengthAdjust="spacing" textLength="74" x="87" y="488.9316">state: string</text><rect fill="none" height="6" style="stroke:#C82930;stroke-width:1.0;" width="6" x="75" y="500.2559"/><text fill="#000000" font-family="sans-serif" font-size="14" lengthAdjust="spacing" textLength="94" x="87" y="507.5527">zipCode: string</text><rect fill="none" height="6" style="stroke:#C82930;stroke-width:1.0;" width="6" x="75" y="518.877"/><text fill="#000000" font-family="sans-serif" font-size="14" lengthAdjust="spacing" textLength="90" x="87" y="526.1738">country: string</text><line style="stroke:#181818;stroke-width:0.5;" x1="68" x2="186" y1="533.6875" y2="533.6875"/></g><!--class Role--><g id="elem_Role"><rect codeLine="87" fill="#F1F1F1" height="103.8633" id="Role" rx="2.5" ry="2.5" style="stroke:#181818;stroke-width:0.5;" width="80" x="268" y="134"/><ellipse cx="291.55" cy="150" fill="#EB937F" rx="11" ry="11" style="stroke:#181818;stroke-width:1.0;"/><path d="M290.4094,150.7969 L290.4094,153.2969 L294.7375,153.2969 L294.7375,152.375 Q294.7375,151.7656 294.9719,151.5 Q295.2219,151.2344 295.5969,151.2344 Q295.9719,151.2344 296.2063,151.5 Q296.4406,151.7656 296.4406,152.375 L296.4406,155 L288.4406,155 Q287.8156,155 287.55,154.7656 Q287.3,154.5313 287.3,154.1406 Q287.3,153.7656 287.5656,153.5313 Q287.8313,153.2969 288.4406,153.2969 L288.7063,153.2969 L288.7063,146.6406 L288.4406,146.6406 Q287.8156,146.6406 287.55,146.4063 Q287.3,146.1719 287.3,145.7813 Q287.3,145.4063 287.55,145.1719 Q287.8156,144.9375 288.4406,144.9375 L296.0656,144.9375 L296.0656,147.5313 Q296.0656,148.1406 295.8313,148.4063 Q295.6125,148.6563 295.2219,148.6563 Q294.8469,148.6563 294.6125,148.4063 Q294.3781,148.1406 294.3781,147.5313 L294.3781,146.6406 L290.4094,146.6406 L290.4094,149.0938 L291.8938,149.0938 Q291.8938,148.4375 292.0188,148.25 Q292.2844,147.8438 292.7531,147.8438 Q293.1281,147.8438 293.3625,148.1094 Q293.5969,148.3594 293.5969,148.9688 L293.5969,150.9375 Q293.5969,151.4844 293.4719,151.6719 Q293.2063,152.0625 292.7531,152.0625 Q292.2844,152.0625 292.0188,151.6563 Q291.8938,151.4688 291.8938,150.7969 L290.4094,150.7969 Z " fill="#000000"/><text fill="#000000" font-family="sans-serif" font-size="14" lengthAdjust="spacing" textLength="29" x="307.45" y="155.7969">Role</text><line style="stroke:#181818;stroke-width:0.5;" x1="269" x2="347" y1="166" y2="166"/><text fill="#000000" font-family="sans-serif" font-size="14" lengthAdjust="spacing" textLength="42" x="274" y="185.1074">ADMIN</text><text fill="#000000" font-family="sans-serif" font-size="14" lengthAdjust="spacing" textLength="68" x="274" y="203.7285">MANAGER</text><text fill="#000000" font-family="sans-serif" font-size="14" lengthAdjust="spacing" textLength="48" x="274" y="222.3496">CLIENT</text><line style="stroke:#181818;stroke-width:0.5;" x1="269" x2="347" y1="229.8633" y2="229.8633"/></g><!--link User to Address--><g id="link_User_Address"><path codeLine="94" d="M138.26,328.34 C136.56,348.88 135.3561,363.3605 133.8161,381.9205 " fill="none" id="User-to-Address" style="stroke:#181818;stroke-width:1.0;"/><polygon fill="#181818" points="133.32,387.9,138.0505,379.2616,133.7334,382.9171,130.0779,378.6001,133.32,387.9" style="stroke:#181818;stroke-width:1.0;"/><text fill="#000000" font-family="sans-serif" font-size="13" lengthAdjust="spacing" textLength="7" x="130.4742" y="350.1526">1</text><text fill="#000000" font-family="sans-serif" font-size="13" lengthAdjust="spacing" textLength="7" x="126.5888" y="376.7983">1</text></g><!--link User to Role--><g id="link_User_Role"><path codeLine="95" d="M232.7,186 C244.47,186 250.23,186 262,186 " fill="none" id="User-to-Role" style="stroke:#181818;stroke-width:1.0;"/><polygon fill="#181818" points="268,186,259,182,263,186,259,190,268,186" style="stroke:#181818;stroke-width:1.0;"/><text fill="#000000" font-family="sans-serif" font-size="13" lengthAdjust="spacing" textLength="5" x="240.5544" y="182.2565">*</text><text fill="#000000" font-family="sans-serif" font-size="13" lengthAdjust="spacing" textLength="7" x="252.9797" y="181.5006">1</text></g><!--link User to Cart--><g id="link_User_Cart"><path codeLine="96" d="M232.71,315.36 C238.51,320.06 244.6,324.33 251,328 C428.28,429.84 536.78,260.81 709,371 C731.65,385.49 743.766,407.4923 751.906,428.8823 " fill="none" id="User-to-Cart" style="stroke:#181818;stroke-width:1.0;"/><polygon fill="#181818" points="754.04,434.49,754.5774,424.6558,752.2617,429.8169,747.1005,427.5012,754.04,434.49" style="stroke:#181818;stroke-width:1.0;"/><text fill="#000000" font-family="sans-serif" font-size="13" lengthAdjust="spacing" textLength="7" x="240.3881" y="323.1638">1</text><text fill="#000000" font-family="sans-serif" font-size="13" lengthAdjust="spacing" textLength="7" x="744.3144" y="423.0624">1</text></g><!--link User to Order--><g id="link_User_Order"><path codeLine="97" d="M217.91,328.09 C244.66,405.97 257.94,500 205,566 C194.74,578.79 183.21,565.83 169,574 C149.55,585.18 135.8611,597.6599 121.7211,614.1099 " fill="none" id="User-to-Order" style="stroke:#181818;stroke-width:1.0;"/><polygon fill="#181818" points="117.81,618.66,126.7101,614.4423,121.0693,614.8683,120.6433,609.2275,117.81,618.66" style="stroke:#181818;stroke-width:1.0;"/><text fill="#000000" font-family="sans-serif" font-size="13" lengthAdjust="spacing" textLength="7" x="214.2311" y="349.8897">1</text><text fill="#000000" font-family="sans-serif" font-size="13" lengthAdjust="spacing" textLength="20" x="101.2989" y="607.5874">0..*</text></g><!--link Cart to Order--><g id="link_Cart_Order"><path codeLine="98" d="M755.76,495.81 C748.31,519.38 734.14,550.75 709,566 C683.35,581.56 196.4,561.78 169,574 C147.51,583.59 132.7594,596.7663 118.4494,614.2563 " fill="none" id="Cart-to-Order" style="stroke:#181818;stroke-width:1.0;"/><polygon fill="#181818" points="114.65,618.9,123.445,614.4673,117.8162,615.0302,117.2533,609.4014,114.65,618.9" style="stroke:#181818;stroke-width:1.0;"/><text fill="#000000" font-family="sans-serif" font-size="13" lengthAdjust="spacing" textLength="7" x="746.7798" y="517.1515">1</text><text fill="#000000" font-family="sans-serif" font-size="13" lengthAdjust="spacing" textLength="7" x="111.6086" y="607.8611">1</text></g><!--link Cart to CartItem--><g id="link_Cart_CartItem"><path codeLine="99" d="M747.14,495.87 C736.48,515.8 722.06,542.56 709,566 C697.49,586.67 687.381,604.3444 676.551,623.0944 " fill="none" id="Cart-to-CartItem" style="stroke:#181818;stroke-width:1.0;"/><polygon fill="#181818" points="673.55,628.29,681.5152,622.4973,676.0508,623.9603,674.5877,618.496,673.55,628.29" style="stroke:#181818;stroke-width:1.0;"/><text fill="#000000" font-family="sans-serif" font-size="13" lengthAdjust="spacing" textLength="7" x="736.5705" y="517.2225">1</text><text fill="#000000" font-family="sans-serif" font-size="13" lengthAdjust="spacing" textLength="5" x="671.8708" y="617.3408">*</text></g><!--link CartItem to Product--><g id="link_CartItem_Product"><path codeLine="100" d="M608.2,697.95 C565.26,727 503.4198,768.8382 452.9798,802.9582 " fill="none" id="CartItem-to-Product" style="stroke:#181818;stroke-width:1.0;"/><polygon fill="#181818" points="448.01,806.32,457.7058,804.5905,452.1515,803.5185,453.2234,797.9642,448.01,806.32" style="stroke:#181818;stroke-width:1.0;"/><text fill="#000000" font-family="sans-serif" font-size="13" lengthAdjust="spacing" textLength="7" x="593.5316" y="698.5383">1</text><text fill="#000000" font-family="sans-serif" font-size="13" lengthAdjust="spacing" textLength="7" x="455.9408" y="797.2366">1</text></g><!--link ProductCategory to Product--><g id="link_ProductCategory_Product"><path codeLine="101" d="M378.26,717.34 C378.36,735.55 378.4472,750.7301 378.5572,770.8601 " fill="none" id="ProductCategory-to-Product" style="stroke:#181818;stroke-width:1.0;"/><polygon fill="#181818" points="378.59,776.86,382.5408,767.8383,378.5627,771.8601,374.5409,767.882,378.59,776.86" style="stroke:#181818;stroke-width:1.0;"/><text fill="#000000" font-family="sans-serif" font-size="13" lengthAdjust="spacing" textLength="7" x="370.8449" y="738.809">1</text><text fill="#000000" font-family="sans-serif" font-size="13" lengthAdjust="spacing" textLength="5" x="373.3126" y="765.7545">*</text></g><!--link Product to ProductVariant--><g id="link_Product_ProductVariant"><path codeLine="102" d="M340.23,931.27 C330.6,950.21 322.8385,965.4812 312.6585,985.5112 " fill="none" id="Product-to-ProductVariant" style="stroke:#181818;stroke-width:1.0;"/><polygon fill="#181818" points="309.94,990.86,317.5836,984.6491,312.2054,986.4026,310.4518,981.0245,309.94,990.86" style="stroke:#181818;stroke-width:1.0;"/><text fill="#000000" font-family="sans-serif" font-size="13" lengthAdjust="spacing" textLength="7" x="329.5974" y="952.6951">1</text><text fill="#000000" font-family="sans-serif" font-size="13" lengthAdjust="spacing" textLength="5" x="308.6442" y="979.5701">*</text></g><!--link Color to ProductVariant--><g id="link_Color_ProductVariant"><path codeLine="103" d="M236.43,912.18 C239.08,935.75 241.5684,957.8577 244.6084,984.8477 " fill="none" id="Color-to-ProductVariant" style="stroke:#181818;stroke-width:1.0;"/><polygon fill="#181818" points="245.28,990.81,248.2475,981.4188,244.7204,985.8414,240.2978,982.3143,245.28,990.81" style="stroke:#181818;stroke-width:1.0;"/><text fill="#000000" font-family="sans-serif" font-size="13" lengthAdjust="spacing" textLength="7" x="229.7871" y="934.3255">1</text><text fill="#000000" font-family="sans-serif" font-size="13" lengthAdjust="spacing" textLength="5" x="239.2802" y="979.8705">*</text></g><!--link Discount to Cart--><g id="link_Discount_Cart"><path codeLine="104" d="M691.78,465 C703.46,465 709.15,465 720.83,465 " fill="none" id="Discount-to-Cart" style="stroke:#181818;stroke-width:1.0;"/><polygon fill="#181818" points="726.83,465,717.83,461,721.83,465,717.83,469,726.83,465" style="stroke:#181818;stroke-width:1.0;"/><text fill="#000000" font-family="sans-serif" font-size="13" lengthAdjust="spacing" textLength="7" x="699.532" y="461.3696">1</text><text fill="#000000" font-family="sans-serif" font-size="13" lengthAdjust="spacing" textLength="5" x="713.8543" y="460.3483">*</text></g><!--link Discount to Order--><g id="link_Discount_Order"><path codeLine="105" d="M506.95,514.05 C464.67,533.94 413.02,554.91 364,566 C342.85,570.78 188.69,564.91 169,574 C147.84,583.78 133.2795,596.7727 118.9995,614.0727 " fill="none" id="Discount-to-Order" style="stroke:#181818;stroke-width:1.0;"/><polygon fill="#181818" points="115.18,618.7,123.9941,614.3054,118.3629,614.844,117.8244,609.2128,115.18,618.7" style="stroke:#181818;stroke-width:1.0;"/><text fill="#000000" font-family="sans-serif" font-size="13" lengthAdjust="spacing" textLength="7" x="489.6086" y="534.3984">1</text><text fill="#000000" font-family="sans-serif" font-size="13" lengthAdjust="spacing" textLength="5" x="120.0569" y="607.633">*</text></g><!--link Order to OrderDetail--><g id="link_Order_OrderDetail"><path codeLine="106" d="M81.16,717.34 C80.01,747.58 78.7793,780.0144 77.6993,808.2544 " fill="none" id="Order-to-OrderDetail" style="stroke:#181818;stroke-width:1.0;"/><polygon fill="#181818" points="77.47,814.25,81.811,805.4094,77.6611,809.2537,73.8169,805.1037,77.47,814.25" style="stroke:#181818;stroke-width:1.0;"/><text fill="#000000" font-family="sans-serif" font-size="13" lengthAdjust="spacing" textLength="7" x="73.4758" y="738.809">1</text><text fill="#000000" font-family="sans-serif" font-size="13" lengthAdjust="spacing" textLength="5" x="72.2994" y="803.2942">*</text></g><!--link OrderDetail to ProductVariant--><g id="link_OrderDetail_ProductVariant"><path codeLine="107" d="M105.08,893.56 C126.62,922.11 153.3278,957.5292 181.2178,994.5192 " fill="none" id="OrderDetail-to-ProductVariant" style="stroke:#181818;stroke-width:1.0;"/><polygon fill="#181818" points="184.83,999.31,182.6056,989.7156,181.8198,995.3177,176.2178,994.5319,184.83,999.31" style="stroke:#181818;stroke-width:1.0;"/><text fill="#000000" font-family="sans-serif" font-size="13" lengthAdjust="spacing" textLength="5" x="104.6484" y="915.8562">*</text><text fill="#000000" font-family="sans-serif" font-size="13" lengthAdjust="spacing" textLength="7" x="170.0265" y="985.5288">1</text></g><!--SRC=[dLHTRzem57tFhx1uh4IrlQ8AAG9K8GsAwDRNoNDk7RT9xDgEMZRrl-_6CJInpOh60w1pZu_lrx6Yx9bo83ijYvRPd7CDd5eWDpTxO9Osl8BvdFp9Ce8VLb5ZZboah1ehxC75k_2KY696ZDMYuHveQ0q1L81XMYWhP1D4b1OCsHlPmC53BorrTyo8QAp3tXEfF50ja9VAw5KKjWpkAK7mqWOWaxMIHfnFwx6Ir1x9L7EvYt5BttQW6JHsZ8iQcnp86YlPiwiBEEYpjIrm6bpgm_-rUwIua9NKiKwdKab_858euIrGH4tbr-Q-b4fXP47rPRlJ4UCCtaFAsaATAfZMiatjmL8OraLIPvWieXNqz9_gEApn50OLtka2z4MbEUQvATqFhsyDw1dvOL9JTofBi5HKdpPWa6OdTb6M7V6YLNeKsjY4VL4b1KED6OV6mGjVfGwLLOa6Zzo7PUb3P16i9cIwrs04_HOgG6XHQ30cGB4x0W7QUNpfbBllU0PvVnhRz42h5kv-FM4t1xr23G3xULwfz37NHRoGgV9zIj2qDTdB2lpr-NApthf_ctoRtwxsxl_Ystgr_Vwn5sxCawyJCftEtQ-loGUkCD3ZdNBCxZmOe5-kh_6KMy_CkNZ8Jy5NavELivEdXuVy0vU53zrG8U2aOlxnp_hNxH-4qoFXE1yP1W4VwKlgJHtXlK6peLbTJyUL-Ol_0W00]--></g></svg>